<mxfile host="Electron" agent="Mozilla/5.0 (Windows NT 10.0; Win64; x64) AppleWebKit/537.36 (KHTML, like Gecko) draw.io/24.7.17 Chrome/128.0.6613.36 Electron/32.0.1 Safari/537.36" version="24.7.17">
  <diagram id="R2lEEEUBdFMjLlhIrx00" name="Page-1">
    <mxGraphModel dx="2600" dy="1035" grid="1" gridSize="10" guides="1" tooltips="1" connect="1" arrows="1" fold="1" page="1" pageScale="1" pageWidth="850" pageHeight="1100" math="0" shadow="0" extFonts="Permanent Marker^https://fonts.googleapis.com/css?family=Permanent+Marker">
      <root>
        <mxCell id="0" />
        <mxCell id="1" parent="0" />
        <mxCell id="Wc9sLztaOv5FQMC_ZbN--1" value="Player" style="rounded=0;whiteSpace=wrap;html=1;" vertex="1" parent="1">
          <mxGeometry x="-145" y="620" width="150" height="60" as="geometry" />
        </mxCell>
        <mxCell id="Wc9sLztaOv5FQMC_ZbN--2" value="Situation" style="rounded=0;whiteSpace=wrap;html=1;" vertex="1" parent="1">
          <mxGeometry x="945" y="210" width="150" height="60" as="geometry" />
        </mxCell>
        <mxCell id="Wc9sLztaOv5FQMC_ZbN--4" value="Storytelling" style="rounded=0;whiteSpace=wrap;html=1;" vertex="1" parent="1">
          <mxGeometry x="430" y="420" width="150" height="60" as="geometry" />
        </mxCell>
        <mxCell id="Wc9sLztaOv5FQMC_ZbN--6" value="PlayerClassOption" style="rounded=0;whiteSpace=wrap;html=1;" vertex="1" parent="1">
          <mxGeometry x="165" y="880" width="150" height="60" as="geometry" />
        </mxCell>
        <mxCell id="Wc9sLztaOv5FQMC_ZbN--8" value="Id" style="ellipse;whiteSpace=wrap;html=1;" vertex="1" parent="1">
          <mxGeometry x="-265" y="350" width="120" height="80" as="geometry" />
        </mxCell>
        <mxCell id="Wc9sLztaOv5FQMC_ZbN--9" value="Id" style="ellipse;whiteSpace=wrap;html=1;" vertex="1" parent="1">
          <mxGeometry x="1150" y="380" width="120" height="80" as="geometry" />
        </mxCell>
        <mxCell id="Wc9sLztaOv5FQMC_ZbN--11" value="Id" style="ellipse;whiteSpace=wrap;html=1;" vertex="1" parent="1">
          <mxGeometry x="350" y="550" width="120" height="80" as="geometry" />
        </mxCell>
        <mxCell id="Wc9sLztaOv5FQMC_ZbN--13" value="Name" style="ellipse;whiteSpace=wrap;html=1;" vertex="1" parent="1">
          <mxGeometry x="-320" y="450" width="120" height="80" as="geometry" />
        </mxCell>
        <mxCell id="Wc9sLztaOv5FQMC_ZbN--14" value="Name" style="ellipse;whiteSpace=wrap;html=1;" vertex="1" parent="1">
          <mxGeometry x="1200" y="260" width="120" height="80" as="geometry" />
        </mxCell>
        <mxCell id="Wc9sLztaOv5FQMC_ZbN--17" value="Description" style="ellipse;whiteSpace=wrap;html=1;" vertex="1" parent="1">
          <mxGeometry x="1200" y="140" width="120" height="80" as="geometry" />
        </mxCell>
        <mxCell id="Wc9sLztaOv5FQMC_ZbN--18" value="Id" style="ellipse;whiteSpace=wrap;html=1;" vertex="1" parent="1">
          <mxGeometry x="20" y="980" width="120" height="80" as="geometry" />
        </mxCell>
        <mxCell id="Wc9sLztaOv5FQMC_ZbN--19" value="Name" style="ellipse;whiteSpace=wrap;html=1;" vertex="1" parent="1">
          <mxGeometry x="180" y="1000" width="120" height="80" as="geometry" />
        </mxCell>
        <mxCell id="Wc9sLztaOv5FQMC_ZbN--20" value="Description" style="ellipse;whiteSpace=wrap;html=1;" vertex="1" parent="1">
          <mxGeometry x="350" y="980" width="120" height="80" as="geometry" />
        </mxCell>
        <mxCell id="Wc9sLztaOv5FQMC_ZbN--23" value="isEnding&lt;span style=&quot;color: rgba(0, 0, 0, 0); font-family: monospace; font-size: 0px; text-align: start; text-wrap: nowrap;&quot;&gt;%3CmxGraphModel%3E%3Croot%3E%3CmxCell%20id%3D%220%22%2F%3E%3CmxCell%20id%3D%221%22%20parent%3D%220%22%2F%3E%3CmxCell%20id%3D%222%22%20value%3D%22Description%22%20style%3D%22ellipse%3BwhiteSpace%3Dwrap%3Bhtml%3D1%3B%22%20vertex%3D%221%22%20parent%3D%221%22%3E%3CmxGeometry%20x%3D%22620%22%20y%3D%22190%22%20width%3D%22120%22%20height%3D%2280%22%20as%3D%22geometry%22%2F%3E%3C%2FmxCell%3E%3C%2Froot%3E%3C%2FmxGraphModel%3E&lt;/span&gt;" style="ellipse;whiteSpace=wrap;html=1;" vertex="1" parent="1">
          <mxGeometry x="1150" y="40" width="120" height="80" as="geometry" />
        </mxCell>
        <mxCell id="Wc9sLztaOv5FQMC_ZbN--24" value="Background" style="ellipse;whiteSpace=wrap;html=1;" vertex="1" parent="1">
          <mxGeometry x="-320" y="560" width="120" height="80" as="geometry" />
        </mxCell>
        <mxCell id="Wc9sLztaOv5FQMC_ZbN--25" value="next_Situation" style="ellipse;whiteSpace=wrap;html=1;" vertex="1" parent="1">
          <mxGeometry x="540" y="550" width="120" height="80" as="geometry" />
        </mxCell>
        <mxCell id="Wc9sLztaOv5FQMC_ZbN--26" value="Option" style="ellipse;whiteSpace=wrap;html=1;" vertex="1" parent="1">
          <mxGeometry x="350" y="280" width="120" height="80" as="geometry" />
        </mxCell>
        <mxCell id="Wc9sLztaOv5FQMC_ZbN--27" value="Situaltion" style="ellipse;whiteSpace=wrap;html=1;" vertex="1" parent="1">
          <mxGeometry x="540" y="280" width="120" height="80" as="geometry" />
        </mxCell>
        <mxCell id="Wc9sLztaOv5FQMC_ZbN--28" value="Class" style="ellipse;whiteSpace=wrap;html=1;" vertex="1" parent="1">
          <mxGeometry x="-320" y="660" width="120" height="80" as="geometry" />
        </mxCell>
        <mxCell id="Wc9sLztaOv5FQMC_ZbN--30" value="Storytelling" style="ellipse;whiteSpace=wrap;html=1;" vertex="1" parent="1">
          <mxGeometry x="-320" y="760" width="120" height="80" as="geometry" />
        </mxCell>
        <mxCell id="Wc9sLztaOv5FQMC_ZbN--31" value="SitualtionSolvedCounter" style="ellipse;whiteSpace=wrap;html=1;" vertex="1" parent="1">
          <mxGeometry x="-305" y="850" width="160" height="80" as="geometry" />
        </mxCell>
        <mxCell id="Wc9sLztaOv5FQMC_ZbN--32" value="PlayerBackgroundOption" style="rounded=0;whiteSpace=wrap;html=1;" vertex="1" parent="1">
          <mxGeometry x="685" y="880" width="150" height="60" as="geometry" />
        </mxCell>
        <mxCell id="Wc9sLztaOv5FQMC_ZbN--33" value="Id" style="ellipse;whiteSpace=wrap;html=1;" vertex="1" parent="1">
          <mxGeometry x="540" y="980" width="120" height="80" as="geometry" />
        </mxCell>
        <mxCell id="Wc9sLztaOv5FQMC_ZbN--34" value="Name" style="ellipse;whiteSpace=wrap;html=1;" vertex="1" parent="1">
          <mxGeometry x="700" y="1000" width="120" height="80" as="geometry" />
        </mxCell>
        <mxCell id="Wc9sLztaOv5FQMC_ZbN--35" value="Description" style="ellipse;whiteSpace=wrap;html=1;" vertex="1" parent="1">
          <mxGeometry x="860" y="980" width="120" height="80" as="geometry" />
        </mxCell>
        <mxCell id="Wc9sLztaOv5FQMC_ZbN--36" value="Option" style="rounded=0;whiteSpace=wrap;html=1;" vertex="1" parent="1">
          <mxGeometry x="945" y="660" width="150" height="60" as="geometry" />
        </mxCell>
        <mxCell id="Wc9sLztaOv5FQMC_ZbN--37" value="Id" style="ellipse;whiteSpace=wrap;html=1;" vertex="1" parent="1">
          <mxGeometry x="1150" y="790" width="120" height="80" as="geometry" />
        </mxCell>
        <mxCell id="Wc9sLztaOv5FQMC_ZbN--38" value="Name" style="ellipse;whiteSpace=wrap;html=1;" vertex="1" parent="1">
          <mxGeometry x="1200" y="650" width="120" height="80" as="geometry" />
        </mxCell>
        <mxCell id="Wc9sLztaOv5FQMC_ZbN--39" value="Description" style="ellipse;whiteSpace=wrap;html=1;" vertex="1" parent="1">
          <mxGeometry x="1150" y="520" width="120" height="80" as="geometry" />
        </mxCell>
        <mxCell id="Wc9sLztaOv5FQMC_ZbN--43" value="" style="endArrow=none;html=1;rounded=0;" edge="1" parent="1" source="Wc9sLztaOv5FQMC_ZbN--1" target="Wc9sLztaOv5FQMC_ZbN--8">
          <mxGeometry width="50" height="50" relative="1" as="geometry">
            <mxPoint x="30" y="540" as="sourcePoint" />
            <mxPoint x="80" y="490" as="targetPoint" />
          </mxGeometry>
        </mxCell>
        <mxCell id="Wc9sLztaOv5FQMC_ZbN--44" value="" style="endArrow=none;html=1;rounded=0;" edge="1" parent="1" source="Wc9sLztaOv5FQMC_ZbN--1" target="Wc9sLztaOv5FQMC_ZbN--13">
          <mxGeometry width="50" height="50" relative="1" as="geometry">
            <mxPoint x="-76" y="630" as="sourcePoint" />
            <mxPoint x="-175" y="438" as="targetPoint" />
          </mxGeometry>
        </mxCell>
        <mxCell id="Wc9sLztaOv5FQMC_ZbN--45" value="" style="endArrow=none;html=1;rounded=0;" edge="1" parent="1" source="Wc9sLztaOv5FQMC_ZbN--1" target="Wc9sLztaOv5FQMC_ZbN--24">
          <mxGeometry width="50" height="50" relative="1" as="geometry">
            <mxPoint x="-66" y="640" as="sourcePoint" />
            <mxPoint x="-165" y="448" as="targetPoint" />
          </mxGeometry>
        </mxCell>
        <mxCell id="Wc9sLztaOv5FQMC_ZbN--46" value="" style="endArrow=none;html=1;rounded=0;" edge="1" parent="1" source="Wc9sLztaOv5FQMC_ZbN--1" target="Wc9sLztaOv5FQMC_ZbN--28">
          <mxGeometry width="50" height="50" relative="1" as="geometry">
            <mxPoint x="-56" y="650" as="sourcePoint" />
            <mxPoint x="-155" y="458" as="targetPoint" />
          </mxGeometry>
        </mxCell>
        <mxCell id="Wc9sLztaOv5FQMC_ZbN--47" value="" style="endArrow=none;html=1;rounded=0;" edge="1" parent="1" source="Wc9sLztaOv5FQMC_ZbN--1" target="Wc9sLztaOv5FQMC_ZbN--30">
          <mxGeometry width="50" height="50" relative="1" as="geometry">
            <mxPoint x="-46" y="660" as="sourcePoint" />
            <mxPoint x="-145" y="468" as="targetPoint" />
          </mxGeometry>
        </mxCell>
        <mxCell id="Wc9sLztaOv5FQMC_ZbN--48" value="" style="endArrow=none;html=1;rounded=0;" edge="1" parent="1" source="Wc9sLztaOv5FQMC_ZbN--1" target="Wc9sLztaOv5FQMC_ZbN--31">
          <mxGeometry width="50" height="50" relative="1" as="geometry">
            <mxPoint x="-36" y="670" as="sourcePoint" />
            <mxPoint x="-135" y="478" as="targetPoint" />
          </mxGeometry>
        </mxCell>
        <mxCell id="Wc9sLztaOv5FQMC_ZbN--49" value="" style="endArrow=none;html=1;rounded=0;" edge="1" parent="1" source="Wc9sLztaOv5FQMC_ZbN--4" target="Wc9sLztaOv5FQMC_ZbN--27">
          <mxGeometry width="50" height="50" relative="1" as="geometry">
            <mxPoint x="460" y="690" as="sourcePoint" />
            <mxPoint x="361" y="498" as="targetPoint" />
          </mxGeometry>
        </mxCell>
        <mxCell id="Wc9sLztaOv5FQMC_ZbN--50" value="" style="endArrow=none;html=1;rounded=0;" edge="1" parent="1" source="Wc9sLztaOv5FQMC_ZbN--4" target="Wc9sLztaOv5FQMC_ZbN--26">
          <mxGeometry width="50" height="50" relative="1" as="geometry">
            <mxPoint x="-16" y="690" as="sourcePoint" />
            <mxPoint x="-115" y="498" as="targetPoint" />
          </mxGeometry>
        </mxCell>
        <mxCell id="Wc9sLztaOv5FQMC_ZbN--52" value="" style="endArrow=none;html=1;rounded=0;" edge="1" parent="1" source="Wc9sLztaOv5FQMC_ZbN--4" target="Wc9sLztaOv5FQMC_ZbN--11">
          <mxGeometry width="50" height="50" relative="1" as="geometry">
            <mxPoint x="537" y="430" as="sourcePoint" />
            <mxPoint x="584" y="366" as="targetPoint" />
          </mxGeometry>
        </mxCell>
        <mxCell id="Wc9sLztaOv5FQMC_ZbN--53" value="" style="endArrow=none;html=1;rounded=0;" edge="1" parent="1" source="Wc9sLztaOv5FQMC_ZbN--4" target="Wc9sLztaOv5FQMC_ZbN--25">
          <mxGeometry width="50" height="50" relative="1" as="geometry">
            <mxPoint x="547" y="440" as="sourcePoint" />
            <mxPoint x="594" y="376" as="targetPoint" />
          </mxGeometry>
        </mxCell>
        <mxCell id="Wc9sLztaOv5FQMC_ZbN--54" value="" style="endArrow=none;html=1;rounded=0;" edge="1" parent="1" source="Wc9sLztaOv5FQMC_ZbN--6" target="Wc9sLztaOv5FQMC_ZbN--20">
          <mxGeometry width="50" height="50" relative="1" as="geometry">
            <mxPoint x="557" y="450" as="sourcePoint" />
            <mxPoint x="604" y="386" as="targetPoint" />
          </mxGeometry>
        </mxCell>
        <mxCell id="Wc9sLztaOv5FQMC_ZbN--55" value="" style="endArrow=none;html=1;rounded=0;" edge="1" parent="1" source="Wc9sLztaOv5FQMC_ZbN--6" target="Wc9sLztaOv5FQMC_ZbN--19">
          <mxGeometry width="50" height="50" relative="1" as="geometry">
            <mxPoint x="307" y="950" as="sourcePoint" />
            <mxPoint x="379" y="1001" as="targetPoint" />
          </mxGeometry>
        </mxCell>
        <mxCell id="Wc9sLztaOv5FQMC_ZbN--56" value="" style="endArrow=none;html=1;rounded=0;" edge="1" parent="1" source="Wc9sLztaOv5FQMC_ZbN--6" target="Wc9sLztaOv5FQMC_ZbN--18">
          <mxGeometry width="50" height="50" relative="1" as="geometry">
            <mxPoint x="317" y="960" as="sourcePoint" />
            <mxPoint x="389" y="1011" as="targetPoint" />
          </mxGeometry>
        </mxCell>
        <mxCell id="Wc9sLztaOv5FQMC_ZbN--57" value="" style="endArrow=none;html=1;rounded=0;" edge="1" parent="1" source="Wc9sLztaOv5FQMC_ZbN--32" target="Wc9sLztaOv5FQMC_ZbN--33">
          <mxGeometry width="50" height="50" relative="1" as="geometry">
            <mxPoint x="327" y="970" as="sourcePoint" />
            <mxPoint x="399" y="1021" as="targetPoint" />
          </mxGeometry>
        </mxCell>
        <mxCell id="Wc9sLztaOv5FQMC_ZbN--58" value="" style="endArrow=none;html=1;rounded=0;" edge="1" parent="1" source="Wc9sLztaOv5FQMC_ZbN--32" target="Wc9sLztaOv5FQMC_ZbN--34">
          <mxGeometry width="50" height="50" relative="1" as="geometry">
            <mxPoint x="737" y="950" as="sourcePoint" />
            <mxPoint x="654" y="1003" as="targetPoint" />
          </mxGeometry>
        </mxCell>
        <mxCell id="Wc9sLztaOv5FQMC_ZbN--59" value="" style="endArrow=none;html=1;rounded=0;" edge="1" parent="1" source="Wc9sLztaOv5FQMC_ZbN--32" target="Wc9sLztaOv5FQMC_ZbN--35">
          <mxGeometry width="50" height="50" relative="1" as="geometry">
            <mxPoint x="747" y="960" as="sourcePoint" />
            <mxPoint x="664" y="1013" as="targetPoint" />
          </mxGeometry>
        </mxCell>
        <mxCell id="Wc9sLztaOv5FQMC_ZbN--60" value="" style="endArrow=none;html=1;rounded=0;" edge="1" parent="1" source="Wc9sLztaOv5FQMC_ZbN--37" target="Wc9sLztaOv5FQMC_ZbN--36">
          <mxGeometry width="50" height="50" relative="1" as="geometry">
            <mxPoint x="757" y="970" as="sourcePoint" />
            <mxPoint x="674" y="1023" as="targetPoint" />
          </mxGeometry>
        </mxCell>
        <mxCell id="Wc9sLztaOv5FQMC_ZbN--63" value="" style="endArrow=none;html=1;rounded=0;" edge="1" parent="1" source="Wc9sLztaOv5FQMC_ZbN--38" target="Wc9sLztaOv5FQMC_ZbN--36">
          <mxGeometry width="50" height="50" relative="1" as="geometry">
            <mxPoint x="1180" y="810" as="sourcePoint" />
            <mxPoint x="1071" y="730" as="targetPoint" />
          </mxGeometry>
        </mxCell>
        <mxCell id="Wc9sLztaOv5FQMC_ZbN--64" value="" style="endArrow=none;html=1;rounded=0;" edge="1" parent="1" source="Wc9sLztaOv5FQMC_ZbN--39" target="Wc9sLztaOv5FQMC_ZbN--36">
          <mxGeometry width="50" height="50" relative="1" as="geometry">
            <mxPoint x="1190" y="820" as="sourcePoint" />
            <mxPoint x="1081" y="740" as="targetPoint" />
          </mxGeometry>
        </mxCell>
        <mxCell id="Wc9sLztaOv5FQMC_ZbN--65" value="" style="endArrow=none;html=1;rounded=0;" edge="1" parent="1" source="Wc9sLztaOv5FQMC_ZbN--9" target="Wc9sLztaOv5FQMC_ZbN--2">
          <mxGeometry width="50" height="50" relative="1" as="geometry">
            <mxPoint x="1178" y="598" as="sourcePoint" />
            <mxPoint x="1074" y="670" as="targetPoint" />
          </mxGeometry>
        </mxCell>
        <mxCell id="Wc9sLztaOv5FQMC_ZbN--66" value="" style="endArrow=none;html=1;rounded=0;" edge="1" parent="1" source="Wc9sLztaOv5FQMC_ZbN--14" target="Wc9sLztaOv5FQMC_ZbN--2">
          <mxGeometry width="50" height="50" relative="1" as="geometry">
            <mxPoint x="1188" y="608" as="sourcePoint" />
            <mxPoint x="1084" y="680" as="targetPoint" />
          </mxGeometry>
        </mxCell>
        <mxCell id="Wc9sLztaOv5FQMC_ZbN--67" value="" style="endArrow=none;html=1;rounded=0;" edge="1" parent="1" source="Wc9sLztaOv5FQMC_ZbN--17" target="Wc9sLztaOv5FQMC_ZbN--2">
          <mxGeometry width="50" height="50" relative="1" as="geometry">
            <mxPoint x="1198" y="618" as="sourcePoint" />
            <mxPoint x="1094" y="690" as="targetPoint" />
          </mxGeometry>
        </mxCell>
        <mxCell id="Wc9sLztaOv5FQMC_ZbN--68" value="" style="endArrow=none;html=1;rounded=0;" edge="1" parent="1" source="Wc9sLztaOv5FQMC_ZbN--2" target="Wc9sLztaOv5FQMC_ZbN--23">
          <mxGeometry width="50" height="50" relative="1" as="geometry">
            <mxPoint x="1208" y="628" as="sourcePoint" />
            <mxPoint x="1104" y="700" as="targetPoint" />
          </mxGeometry>
        </mxCell>
        <mxCell id="Wc9sLztaOv5FQMC_ZbN--69" value="has" style="rhombus;whiteSpace=wrap;html=1;" vertex="1" parent="1">
          <mxGeometry x="270" y="750" width="160" height="80" as="geometry" />
        </mxCell>
        <mxCell id="Wc9sLztaOv5FQMC_ZbN--70" value="has" style="rhombus;whiteSpace=wrap;html=1;" vertex="1" parent="1">
          <mxGeometry x="5" y="750" width="150" height="80" as="geometry" />
        </mxCell>
        <mxCell id="Wc9sLztaOv5FQMC_ZbN--71" value="" style="endArrow=none;html=1;rounded=0;" edge="1" parent="1" source="Wc9sLztaOv5FQMC_ZbN--86" target="Wc9sLztaOv5FQMC_ZbN--69">
          <mxGeometry width="50" height="50" relative="1" as="geometry">
            <mxPoint x="495" y="490" as="sourcePoint" />
            <mxPoint x="445" y="564" as="targetPoint" />
          </mxGeometry>
        </mxCell>
        <mxCell id="Wc9sLztaOv5FQMC_ZbN--72" value="" style="endArrow=none;html=1;rounded=0;" edge="1" parent="1" source="Wc9sLztaOv5FQMC_ZbN--85" target="Wc9sLztaOv5FQMC_ZbN--69">
          <mxGeometry width="50" height="50" relative="1" as="geometry">
            <mxPoint x="696" y="890" as="sourcePoint" />
            <mxPoint x="378" y="762" as="targetPoint" />
          </mxGeometry>
        </mxCell>
        <mxCell id="Wc9sLztaOv5FQMC_ZbN--74" value="" style="endArrow=none;html=1;rounded=0;" edge="1" parent="1" source="Wc9sLztaOv5FQMC_ZbN--78" target="Wc9sLztaOv5FQMC_ZbN--70">
          <mxGeometry width="50" height="50" relative="1" as="geometry">
            <mxPoint x="15" y="676" as="sourcePoint" />
            <mxPoint x="317" y="743" as="targetPoint" />
          </mxGeometry>
        </mxCell>
        <mxCell id="Wc9sLztaOv5FQMC_ZbN--76" value="" style="endArrow=none;html=1;rounded=0;" edge="1" parent="1" source="Wc9sLztaOv5FQMC_ZbN--82" target="Wc9sLztaOv5FQMC_ZbN--6">
          <mxGeometry width="50" height="50" relative="1" as="geometry">
            <mxPoint x="25" y="686" as="sourcePoint" />
            <mxPoint x="327" y="753" as="targetPoint" />
          </mxGeometry>
        </mxCell>
        <mxCell id="Wc9sLztaOv5FQMC_ZbN--79" value="" style="endArrow=none;html=1;rounded=0;" edge="1" parent="1" source="Wc9sLztaOv5FQMC_ZbN--1" target="Wc9sLztaOv5FQMC_ZbN--78">
          <mxGeometry width="50" height="50" relative="1" as="geometry">
            <mxPoint x="-38" y="680" as="sourcePoint" />
            <mxPoint x="53" y="765" as="targetPoint" />
          </mxGeometry>
        </mxCell>
        <mxCell id="Wc9sLztaOv5FQMC_ZbN--78" value="n" style="text;html=1;align=center;verticalAlign=middle;whiteSpace=wrap;rounded=0;" vertex="1" parent="1">
          <mxGeometry x="-60" y="680" width="60" height="20" as="geometry" />
        </mxCell>
        <mxCell id="Wc9sLztaOv5FQMC_ZbN--83" value="" style="endArrow=none;html=1;rounded=0;" edge="1" parent="1" source="Wc9sLztaOv5FQMC_ZbN--70" target="Wc9sLztaOv5FQMC_ZbN--82">
          <mxGeometry width="50" height="50" relative="1" as="geometry">
            <mxPoint x="111" y="813" as="sourcePoint" />
            <mxPoint x="200" y="880" as="targetPoint" />
          </mxGeometry>
        </mxCell>
        <mxCell id="Wc9sLztaOv5FQMC_ZbN--82" value="1" style="text;html=1;align=center;verticalAlign=middle;whiteSpace=wrap;rounded=0;" vertex="1" parent="1">
          <mxGeometry x="155" y="850" width="60" height="30" as="geometry" />
        </mxCell>
        <mxCell id="Wc9sLztaOv5FQMC_ZbN--84" value="" style="endArrow=none;html=1;rounded=0;" edge="1" parent="1" source="Wc9sLztaOv5FQMC_ZbN--1" target="Wc9sLztaOv5FQMC_ZbN--85">
          <mxGeometry width="50" height="50" relative="1" as="geometry">
            <mxPoint x="5" y="675" as="sourcePoint" />
            <mxPoint x="302" y="774" as="targetPoint" />
          </mxGeometry>
        </mxCell>
        <mxCell id="Wc9sLztaOv5FQMC_ZbN--85" value="n" style="text;html=1;align=center;verticalAlign=middle;whiteSpace=wrap;rounded=0;" vertex="1" parent="1">
          <mxGeometry x="5" y="670" width="60" height="30" as="geometry" />
        </mxCell>
        <mxCell id="Wc9sLztaOv5FQMC_ZbN--87" value="" style="endArrow=none;html=1;rounded=0;" edge="1" parent="1" source="Wc9sLztaOv5FQMC_ZbN--32" target="Wc9sLztaOv5FQMC_ZbN--86">
          <mxGeometry width="50" height="50" relative="1" as="geometry">
            <mxPoint x="685" y="888" as="sourcePoint" />
            <mxPoint x="400" y="805" as="targetPoint" />
          </mxGeometry>
        </mxCell>
        <mxCell id="Wc9sLztaOv5FQMC_ZbN--86" value="n" style="text;html=1;align=center;verticalAlign=middle;whiteSpace=wrap;rounded=0;" vertex="1" parent="1">
          <mxGeometry x="625" y="870" width="60" height="30" as="geometry" />
        </mxCell>
        <mxCell id="Wc9sLztaOv5FQMC_ZbN--89" value="has" style="rhombus;whiteSpace=wrap;html=1;" vertex="1" parent="1">
          <mxGeometry x="700" y="300" width="160" height="80" as="geometry" />
        </mxCell>
        <mxCell id="Wc9sLztaOv5FQMC_ZbN--90" value="has" style="rhombus;whiteSpace=wrap;html=1;" vertex="1" parent="1">
          <mxGeometry x="700" y="540" width="160" height="80" as="geometry" />
        </mxCell>
        <mxCell id="Wc9sLztaOv5FQMC_ZbN--91" value="" style="endArrow=none;html=1;rounded=0;" edge="1" parent="1" source="Wc9sLztaOv5FQMC_ZbN--96" target="Wc9sLztaOv5FQMC_ZbN--4">
          <mxGeometry width="50" height="50" relative="1" as="geometry">
            <mxPoint x="850" y="455.5" as="sourcePoint" />
            <mxPoint x="624" y="384.5" as="targetPoint" />
          </mxGeometry>
        </mxCell>
        <mxCell id="Wc9sLztaOv5FQMC_ZbN--92" value="" style="endArrow=none;html=1;rounded=0;" edge="1" parent="1" source="Wc9sLztaOv5FQMC_ZbN--101" target="Wc9sLztaOv5FQMC_ZbN--89">
          <mxGeometry width="50" height="50" relative="1" as="geometry">
            <mxPoint x="746" y="517" as="sourcePoint" />
            <mxPoint x="590" y="478" as="targetPoint" />
          </mxGeometry>
        </mxCell>
        <mxCell id="Wc9sLztaOv5FQMC_ZbN--93" value="" style="endArrow=none;html=1;rounded=0;" edge="1" parent="1" source="Wc9sLztaOv5FQMC_ZbN--95" target="Wc9sLztaOv5FQMC_ZbN--4">
          <mxGeometry width="50" height="50" relative="1" as="geometry">
            <mxPoint x="756" y="527" as="sourcePoint" />
            <mxPoint x="600" y="488" as="targetPoint" />
          </mxGeometry>
        </mxCell>
        <mxCell id="Wc9sLztaOv5FQMC_ZbN--94" value="" style="endArrow=none;html=1;rounded=0;" edge="1" parent="1" source="Wc9sLztaOv5FQMC_ZbN--97" target="Wc9sLztaOv5FQMC_ZbN--90">
          <mxGeometry width="50" height="50" relative="1" as="geometry">
            <mxPoint x="766" y="537" as="sourcePoint" />
            <mxPoint x="610" y="498" as="targetPoint" />
          </mxGeometry>
        </mxCell>
        <mxCell id="Wc9sLztaOv5FQMC_ZbN--98" value="" style="endArrow=none;html=1;rounded=0;" edge="1" parent="1" source="Wc9sLztaOv5FQMC_ZbN--36" target="Wc9sLztaOv5FQMC_ZbN--97">
          <mxGeometry width="50" height="50" relative="1" as="geometry">
            <mxPoint x="958" y="660" as="sourcePoint" />
            <mxPoint x="811" y="590" as="targetPoint" />
          </mxGeometry>
        </mxCell>
        <mxCell id="Wc9sLztaOv5FQMC_ZbN--97" value="1" style="text;html=1;align=center;verticalAlign=middle;whiteSpace=wrap;rounded=0;" vertex="1" parent="1">
          <mxGeometry x="900" y="630" width="60" height="30" as="geometry" />
        </mxCell>
        <mxCell id="Wc9sLztaOv5FQMC_ZbN--100" value="" style="endArrow=none;html=1;rounded=0;" edge="1" parent="1" source="Wc9sLztaOv5FQMC_ZbN--90" target="Wc9sLztaOv5FQMC_ZbN--96">
          <mxGeometry width="50" height="50" relative="1" as="geometry">
            <mxPoint x="728" y="551" as="sourcePoint" />
            <mxPoint x="571" y="480" as="targetPoint" />
          </mxGeometry>
        </mxCell>
        <mxCell id="Wc9sLztaOv5FQMC_ZbN--96" value="n" style="text;html=1;align=center;verticalAlign=middle;whiteSpace=wrap;rounded=0;" vertex="1" parent="1">
          <mxGeometry x="565" y="480" width="60" height="30" as="geometry" />
        </mxCell>
        <mxCell id="Wc9sLztaOv5FQMC_ZbN--102" value="" style="endArrow=none;html=1;rounded=0;" edge="1" parent="1" source="Wc9sLztaOv5FQMC_ZbN--2" target="Wc9sLztaOv5FQMC_ZbN--101">
          <mxGeometry width="50" height="50" relative="1" as="geometry">
            <mxPoint x="948" y="270" as="sourcePoint" />
            <mxPoint x="824" y="322" as="targetPoint" />
          </mxGeometry>
        </mxCell>
        <mxCell id="Wc9sLztaOv5FQMC_ZbN--101" value="1" style="text;html=1;align=center;verticalAlign=middle;whiteSpace=wrap;rounded=0;" vertex="1" parent="1">
          <mxGeometry x="900" y="270" width="60" height="30" as="geometry" />
        </mxCell>
        <mxCell id="Wc9sLztaOv5FQMC_ZbN--103" value="" style="endArrow=none;html=1;rounded=0;" edge="1" parent="1" source="Wc9sLztaOv5FQMC_ZbN--89" target="Wc9sLztaOv5FQMC_ZbN--95">
          <mxGeometry width="50" height="50" relative="1" as="geometry">
            <mxPoint x="736" y="358" as="sourcePoint" />
            <mxPoint x="580" y="420" as="targetPoint" />
          </mxGeometry>
        </mxCell>
        <mxCell id="Wc9sLztaOv5FQMC_ZbN--95" value="n" style="text;html=1;align=center;verticalAlign=middle;whiteSpace=wrap;rounded=0;" vertex="1" parent="1">
          <mxGeometry x="565" y="390" width="60" height="30" as="geometry" />
        </mxCell>
        <mxCell id="Wc9sLztaOv5FQMC_ZbN--104" value="has" style="rhombus;whiteSpace=wrap;html=1;" vertex="1" parent="1">
          <mxGeometry x="140" y="510" width="160" height="80" as="geometry" />
        </mxCell>
        <mxCell id="Wc9sLztaOv5FQMC_ZbN--105" value="" style="endArrow=none;html=1;rounded=0;" edge="1" parent="1" source="Wc9sLztaOv5FQMC_ZbN--110" target="Wc9sLztaOv5FQMC_ZbN--4">
          <mxGeometry width="50" height="50" relative="1" as="geometry">
            <mxPoint x="743" y="367" as="sourcePoint" />
            <mxPoint x="635" y="404" as="targetPoint" />
          </mxGeometry>
        </mxCell>
        <mxCell id="Wc9sLztaOv5FQMC_ZbN--106" value="" style="endArrow=none;html=1;rounded=0;" edge="1" parent="1" source="Wc9sLztaOv5FQMC_ZbN--108" target="Wc9sLztaOv5FQMC_ZbN--1">
          <mxGeometry width="50" height="50" relative="1" as="geometry">
            <mxPoint x="241" y="536" as="sourcePoint" />
            <mxPoint x="440" y="481" as="targetPoint" />
          </mxGeometry>
        </mxCell>
        <mxCell id="Wc9sLztaOv5FQMC_ZbN--112" value="" style="endArrow=none;html=1;rounded=0;" edge="1" parent="1" source="Wc9sLztaOv5FQMC_ZbN--104" target="Wc9sLztaOv5FQMC_ZbN--108">
          <mxGeometry width="50" height="50" relative="1" as="geometry">
            <mxPoint x="187" y="566" as="sourcePoint" />
            <mxPoint x="5" y="625" as="targetPoint" />
          </mxGeometry>
        </mxCell>
        <mxCell id="Wc9sLztaOv5FQMC_ZbN--108" value="1" style="text;html=1;align=center;verticalAlign=middle;whiteSpace=wrap;rounded=0;" vertex="1" parent="1">
          <mxGeometry x="5" y="600" width="60" height="30" as="geometry" />
        </mxCell>
        <mxCell id="Wc9sLztaOv5FQMC_ZbN--113" value="" style="endArrow=none;html=1;rounded=0;" edge="1" parent="1" source="Wc9sLztaOv5FQMC_ZbN--104" target="Wc9sLztaOv5FQMC_ZbN--110">
          <mxGeometry width="50" height="50" relative="1" as="geometry">
            <mxPoint x="281" y="533" as="sourcePoint" />
            <mxPoint x="430" y="478" as="targetPoint" />
          </mxGeometry>
        </mxCell>
        <mxCell id="Wc9sLztaOv5FQMC_ZbN--110" value="1" style="text;html=1;align=center;verticalAlign=middle;whiteSpace=wrap;rounded=0;" vertex="1" parent="1">
          <mxGeometry x="370" y="475" width="60" height="30" as="geometry" />
        </mxCell>
      </root>
    </mxGraphModel>
  </diagram>
</mxfile>
